<?xml version="1.0" encoding="UTF-8"?>
<svg id="Layer_1" data-name="Layer 1" xmlns="http://www.w3.org/2000/svg" viewBox="0 0 127 99">
  <defs>
    <style>
      .cls-1 {
        fill: none;
        stroke: #fff;
        stroke-width: 2px;
      }
    </style>
  </defs>
  <path id="_" data-name=" " class="cls-1" d="M55.5,67.27c-.92-2.72-2.44-5.2-4.46-7.25-2.43-2.42-5.39-4.25-8.65-5.33-4.48-1.41-9.17-2.06-13.86-1.91h-7.69c.69-8.95,4.25-17.44,10.16-24.2,5.86-6.65,13.96-12.49,24.3-17.5l-6.04-9.71c-13,5.69-24.48,14.35-33.52,25.29C6.48,37.78,1.84,48.81,1.84,59.75c0,11.76,2.7,20.96,8.09,27.62s13.11,9.98,23.16,9.98c6.2.08,12.18-2.28,16.65-6.56,4.7-4.37,7.05-9.48,7.05-15.31,0-2.79-.43-5.56-1.3-8.2ZM122.9,67.27c-.92-2.72-2.44-5.2-4.46-7.25-2.43-2.42-5.39-4.25-8.65-5.33-4.48-1.41-9.17-2.06-13.86-1.91h-7.68c.69-8.95,4.25-17.44,10.16-24.2,5.86-6.65,13.96-12.49,24.3-17.5l-6.03-9.71c-13,5.69-24.48,14.35-33.52,25.29-9.28,11.12-13.91,22.15-13.91,33.09,0,11.76,2.7,20.96,8.09,27.62s13.11,9.98,23.17,9.98c6.2.08,12.18-2.28,16.65-6.56,4.7-4.37,7.06-9.48,7.06-15.31,0-2.79-.44-5.56-1.31-8.2Z"/>
</svg>